<?xml version="1.0" encoding="utf-8"?>
<!-- Generator: Adobe Illustrator 23.0.3, SVG Export Plug-In . SVG Version: 6.00 Build 0)  -->
<svg version="1.1" id="Layer_1" xmlns="http://www.w3.org/2000/svg" xmlns:xlink="http://www.w3.org/1999/xlink" x="0px" y="0px"
	 viewBox="0 0 325 368" style="enable-background:new 0 0 325 368;" xml:space="preserve">
<style type="text/css">
	.st0{fill:#5F2C82;}
	.st1{opacity:0.22;fill:#FFFFFF;}
	.st2{opacity:0.66;fill:#3D1960;}
	.st3{fill:#FFFFFF;}
	.st4{fill:#D2F0FF;}
	.st5{fill:#FFDA00;}
	.st6{fill:#FCEE21;}
	.st7{opacity:0.7;fill:#391059;}
</style>
<g>
	<path class="st0" d="M157.55,122.99l-0.19,0.07c-5.66,2.12-11.97-0.76-14.08-6.42L105.6,15.82c-2.12-5.66,0.76-11.97,6.42-14.08
		l0.19-0.07c5.66-2.12,11.97,0.76,14.08,6.42l37.68,100.82C166.09,114.57,163.22,120.87,157.55,122.99z"/>
	<path class="st1" d="M121,8.36c0.91,2.76,3.68,18.66,0.91,19.57s-10.01-13.5-10.92-16.26s0.59-5.74,3.35-6.66S120.09,5.6,121,8.36z
		"/>
	<path class="st2" d="M163.51,86.67c0,0-4.08,1.36-8.16,2.72s-15.74,9.52-17.56,12.58c-1.82,3.06,15.86,6.12,15.86,6.12
		L163.51,86.67z"/>
	<path class="st0" d="M157.29,135.06l-0.2-0.05c-5.9-1.34-9.59-7.2-8.26-13.09l23.78-104.97c1.34-5.9,7.2-9.59,13.09-8.26l0.2,0.05
		c5.9,1.34,9.59,7.2,8.26,13.09l-23.78,104.97C169.05,132.7,163.19,136.4,157.29,135.06z"/>
	<path class="st1" d="M189.01,19.15c-0.64,2.84-6.44,17.89-9.28,17.25s-1.64-16.72-1-19.56c0.64-2.84,3.46-4.62,6.3-3.99
		C187.86,13.49,189.65,16.31,189.01,19.15z"/>
	<path class="st3" d="M293.71,251.88v91.1c0,8.07-6.54,14.62-14.62,14.62s-14.62-6.54-14.62-14.62v-91.1"/>
	<path class="st4" d="M263.5,310.01l-5.82,42.43l7.45,5.16h13.31l9.15-1C287.59,356.6,258.92,349.95,263.5,310.01z"/>
	<path class="st4" d="M272.29,289.61l20.4-11v58.56C292.69,337.18,288.61,302.19,272.29,289.61z"/>
	<path class="st0" d="M294.29,251.88c1.1,4.75,1.96,9.5,2.74,14.26c0.41,2.38,0.74,4.75,1.11,7.13c0.35,2.38,0.65,4.75,0.98,7.13
		c1.23,9.5,2.15,19.01,2.9,28.51l0.52,7.13c0.15,2.38,0.28,4.75,0.42,7.13c0.31,4.75,0.45,9.5,0.66,14.26
		c0.05,1.19,0.1,2.38,0.12,3.56l0.04,1.78l0,0.23l-0.01,0.37l-0.02,0.75c-0.02,0.5-0.03,1-0.08,1.5c-0.38,4-1.76,7.94-3.97,11.33
		c-2.26,3.35-5.33,6.15-8.91,8.08c-3.58,1.91-7.67,2.95-11.71,2.97c-4.04-0.03-8.12-1.06-11.7-2.98c-0.45-0.23-0.88-0.51-1.31-0.77
		c-0.43-0.27-0.87-0.52-1.27-0.83c-0.81-0.6-1.63-1.2-2.36-1.9c-0.37-0.34-0.75-0.68-1.1-1.04c-0.34-0.37-0.68-0.74-1.02-1.12
		c-0.17-0.19-0.34-0.38-0.5-0.57c-0.15-0.2-0.31-0.4-0.46-0.61c-0.3-0.41-0.59-0.82-0.88-1.23c-2.21-3.38-3.59-7.32-3.97-11.32
		c-0.04-0.5-0.06-1-0.08-1.5l-0.02-0.75l-0.01-0.37l0-0.23l0.04-1.78c0.02-1.19,0.09-2.38,0.13-3.56c0.2-4.75,0.36-9.5,0.66-14.26
		c0.14-2.38,0.25-4.75,0.42-7.13l0.52-7.13c0.75-9.5,1.67-19.01,2.89-28.51c0.33-2.38,0.62-4.75,0.98-7.13
		c0.36-2.38,0.7-4.75,1.1-7.13c0.78-4.75,1.63-9.5,2.72-14.26h1.16l0.28,28.51l0.16,28.51c0.07,9.5,0.06,19.01,0.08,28.51l0.01,3.56
		l0,1.78c-0.01,0.31,0.03,0.56,0.03,0.84c0.02,0.27,0.02,0.55,0.05,0.82c0.25,2.18,1.03,4.29,2.25,6.11
		c1.26,1.8,2.92,3.31,4.86,4.34c1.94,1.01,4.12,1.55,6.31,1.56c2.19-0.01,4.37-0.55,6.31-1.56c1.94-1.03,3.6-2.54,4.86-4.34
		c1.22-1.82,2-3.93,2.25-6.11c0.03-0.27,0.03-0.55,0.05-0.82c0.01-0.28,0.04-0.53,0.03-0.84l0-1.78l0.01-3.56
		c0.03-9.5,0.01-19.01,0.08-28.51l0.16-28.51l0.28-28.51H294.29z"/>
	<path class="st3" d="M50.65,325.99h191.39c21.59,0,39.09-17.5,39.09-39.09v-103c0-21.59-17.5-39.09-39.09-39.09H50.65
		c-21.59,0-39.09,17.5-39.09,39.09v103C11.56,308.48,29.06,325.99,50.65,325.99z"/>
	<polygon class="st4" points="38.41,243.04 16.32,235.56 16.32,219.95 35.86,219.95 	"/>
	<path class="st4" d="M29.91,262.08c0,0-2.04,1.7-6.12,6.12s-14.28,7.14-14.28,7.14l9.18,28.22l14.62,4.42L29.91,262.08z"/>
	<path class="st4" d="M59.34,282.47c0,0,1.14,1.7,3.41,6.12s35.15,9.18,35.15,9.18l-23.46,28.55l-17,2.04L59.34,282.47z"/>
	<polygon class="st3" points="73.45,288.12 58.63,306.21 56.02,313.77 77.96,287.62 	"/>
	<polygon class="st3" points="77.32,293.03 62.5,311.12 59.89,318.68 81.83,292.54 	"/>
	<polygon class="st3" points="93.46,300.28 78.65,318.37 76.03,325.93 97.97,299.79 	"/>
	<path class="st4" d="M87.22,283.49c0,0,1.14,1.7,3.41,6.12c2.27,4.42,35.15,9.18,35.15,9.18l-23.46,28.55h-28.9L87.22,283.49z"/>
	<polygon class="st3" points="81.57,298.92 66.75,317.01 64.14,324.57 86.07,298.43 	"/>
	<polygon class="st3" points="90.79,295.59 75.97,313.69 73.36,321.25 95.3,295.1 	"/>
	<polygon class="st3" points="97.37,298.46 82.55,316.56 79.94,324.12 101.88,297.97 	"/>
	<polygon class="st3" points="105.7,299.6 90.88,317.69 88.27,325.25 110.21,299.11 	"/>
	<polygon class="st3" points="113.52,300.28 98.7,318.37 96.09,325.93 118.03,299.79 	"/>
	<path class="st0" d="M239.64,334.14H52.71C23.65,334.14,0,310.5,0,281.43v-94.46c0-55.77,52.35-82.97,81.59-85l137.66,18.7
		c29.06,0,52.71,37.24,52.71,66.31l35.69,66.61C307.65,316.47,268.7,334.14,239.64,334.14z M52.71,142.76
		c-18.76,0-34.01,25.46-34.01,44.21v94.46c0,18.76,15.26,34.01,34.01,34.01h186.93c18.76,0,40.81-15.26,40.81-34.01l-27.2-94.46
		c0-18.76-15.26-34.01-34.01-34.01L52.71,142.76z"/>
	<path class="st3" d="M56.43,251.88v91.1c0,8.07-6.54,14.62-14.62,14.62s-14.62-6.54-14.62-14.62v-91.1"/>
	<path class="st4" d="M27.92,310.01l-5.82,42.43l7.45,5.16h13.31l9.15-1C52.01,356.6,23.34,349.95,27.92,310.01z"/>
	<path class="st0" d="M57.01,251.88c1.1,4.75,1.96,9.5,2.74,14.26c0.41,2.38,0.74,4.75,1.11,7.13c0.35,2.38,0.65,4.75,0.98,7.13
		c1.23,9.5,2.15,19.01,2.9,28.51l0.52,7.13c0.15,2.38,0.28,4.75,0.42,7.13c0.31,4.75,0.45,9.5,0.66,14.26
		c0.05,1.19,0.1,2.38,0.12,3.56l0.04,1.78l0,0.23l-0.01,0.37l-0.02,0.75c-0.02,0.5-0.03,1-0.08,1.5c-0.38,4-1.76,7.94-3.97,11.33
		c-2.26,3.35-5.33,6.15-8.91,8.08c-3.58,1.91-7.67,2.95-11.71,2.97c-4.04-0.03-8.12-1.06-11.7-2.98c-0.45-0.23-0.88-0.51-1.31-0.77
		c-0.43-0.27-0.87-0.52-1.27-0.83c-0.81-0.6-1.63-1.2-2.36-1.9c-0.37-0.34-0.75-0.68-1.1-1.04c-0.34-0.37-0.68-0.74-1.02-1.12
		c-0.17-0.19-0.34-0.38-0.5-0.57c-0.15-0.2-0.31-0.4-0.46-0.61c-0.3-0.41-0.59-0.82-0.88-1.23c-2.21-3.38-3.59-7.32-3.97-11.32
		c-0.04-0.5-0.06-1-0.08-1.5l-0.02-0.75L17.14,343l0-0.23l0.04-1.78c0.02-1.19,0.09-2.38,0.13-3.56c0.2-4.75,0.36-9.5,0.66-14.26
		c0.14-2.38,0.25-4.75,0.42-7.13l0.52-7.13c0.75-9.5,1.67-19.01,2.89-28.51c0.33-2.38,0.62-4.75,0.98-7.13
		c0.36-2.38,0.7-4.75,1.1-7.13c0.78-4.75,1.63-9.5,2.72-14.26l0.03-0.12c0.07-0.31,0.38-0.5,0.68-0.43
		c0.26,0.06,0.44,0.29,0.44,0.55l0.28,28.51l0.16,28.51c0.07,9.5,0.06,19.01,0.08,28.51l0.01,3.56l0,1.78
		c-0.01,0.31,0.03,0.56,0.03,0.84c0.02,0.27,0.02,0.55,0.05,0.82c0.25,2.18,1.03,4.29,2.25,6.11c1.26,1.8,2.92,3.31,4.86,4.34
		c1.94,1.01,4.12,1.55,6.31,1.56c2.19-0.01,4.37-0.55,6.31-1.56c1.94-1.03,3.6-2.54,4.86-4.34c1.22-1.82,2-3.93,2.25-6.11
		c0.03-0.27,0.03-0.55,0.05-0.82c0.01-0.28,0.04-0.53,0.03-0.84l0-1.78l0.01-3.56c0.03-9.5,0.01-19.01,0.08-28.51l0.16-28.51
		l0.28-28.51c0-0.32,0.26-0.57,0.58-0.57c0.27,0,0.49,0.19,0.55,0.44L57.01,251.88z"/>
	<path class="st3" d="M86.95,292.16h169.77c23.05,0,41.74-18.69,41.74-41.74v-97.71c0-23.05-18.69-41.74-41.74-41.74H86.95
		c-23.05,0-41.74,18.69-41.74,41.74v97.71C45.21,273.47,63.9,292.16,86.95,292.16z"/>
	<path class="st4" d="M289.12,252.5c0,0-73.6,0-89.23,0s-23.46-18.64-23.46-18.64s-5.1,18.7-24.82,18.7s-101.3,0-101.3,0
		l-4.87-40.68l68.44-51.79l77.17,3.06l89.4,5.1l27.8,6.48l-9.79,74.09L289.12,252.5z"/>
	<path class="st4" d="M36.71,248.78l18.7,29.84v58.56C55.41,337.18,54.32,291.88,36.71,248.78z"/>
	<path class="st0" d="M255.11,301.51H88.57c-29.06,0-52.71-23.65-52.71-52.71v-94.46c0-29.06,23.65-52.71,52.71-52.71h166.53
		c29.06,0,52.71,23.65,52.71,52.71v94.46C307.82,277.86,284.17,301.51,255.11,301.51z M88.57,120.32
		c-18.76,0-34.01,15.26-34.01,34.01v94.46c0,18.76,15.26,34.01,34.01,34.01h166.53c18.76,0,34.01-15.26,34.01-34.01v-94.46
		c0-18.76-15.26-34.01-34.01-34.01H88.57z"/>
	<rect x="42.93" y="163.08" class="st5" width="112.21" height="66.93"/>
	<rect x="197.09" y="163.08" class="st5" width="112.21" height="66.93"/>
	<line class="st3" x1="127.17" y1="160.25" x2="219.74" y2="160.25"/>
	<path class="st6" d="M56.43,160.1c0,0,18.36,24.14,46.57,22.44c28.22-1.7,38.75,11.22,39.77,21.08
		c1.02,9.86,10.88,29.91,10.88,29.91s15.64,11.9,11.9-29.91c-3.74-41.81-15.98-49.63-15.98-49.63L56.43,160.1z"/>
	<path class="st6" d="M202.26,160.1c0,0,18.36,24.14,46.57,22.44c28.22-1.7,38.75,11.22,39.77,21.08
		c1.02,9.86,10.88,29.91,10.88,29.91s15.64,11.9,11.9-29.91s-15.98-49.63-15.98-49.63L202.26,160.1z"/>
	<path class="st7" d="M35.86,242.18c0,0,1.53,4.26,4.25,7.66c2.72,3.4,14.45,2.72,14.45,2.72v-16.11l-14.45-12.1l-4.42,4.42"/>
	<path class="st0" d="M230.22,157.59c0,5.06-4.1,9.16-9.16,9.16h-30.13l-2.11,26.64h-1.73c0,0-5.57-13.4-9.69-13.32
		c-4,0.08-8.91,13.32-8.91,13.32h-4.54l-1.89-26.64H128.5c-5.06,0-9.16-4.1-9.16-9.16s4.1-9.16,9.16-9.16h92.57
		C226.12,148.43,230.22,152.53,230.22,157.59z"/>
	<path class="st0" d="M139.13,244.85H64.26c-18.85,0-34.18-15.33-34.18-34.18v-28.25c0-18.85,15.33-34.18,34.18-34.18h74.87
		c18.85,0,34.18,15.33,34.18,34.18v28.25C173.31,229.52,157.98,244.85,139.13,244.85z M64.26,166.93c-8.54,0-15.48,6.95-15.48,15.48
		v28.25c0,8.54,6.95,15.48,15.48,15.48h74.87c8.54,0,15.48-6.95,15.48-15.48v-28.25c0-8.54-6.95-15.48-15.48-15.48H64.26z"/>
	<rect x="288.95" y="238.96" class="st7" width="18.7" height="12.92"/>
	<path class="st0" d="M290.63,244.85h-74.87c-18.85,0-34.18-15.33-34.18-34.18v-28.25c0-18.85,15.33-34.18,34.18-34.18h74.87
		c18.85,0,34.18,15.33,34.18,34.18v28.25C324.81,229.52,309.48,244.85,290.63,244.85z M215.76,166.93
		c-8.54,0-15.48,6.95-15.48,15.48v28.25c0,8.54,6.95,15.48,15.48,15.48h74.87c8.54,0,15.48-6.95,15.48-15.48v-28.25
		c0-8.54-6.95-15.48-15.48-15.48H215.76z"/>
	<polygon class="st0" points="37.73,157.72 16.32,204.29 16.32,228.08 39.43,230.12 	"/>
</g>
</svg>
