<?xml version="1.0" encoding="utf-8"?>
<!-- Generator: Adobe Illustrator 23.0.3, SVG Export Plug-In . SVG Version: 6.00 Build 0)  -->
<svg version="1.1" id="Layer_1" xmlns="http://www.w3.org/2000/svg" xmlns:xlink="http://www.w3.org/1999/xlink" x="0px" y="0px"
	 viewBox="0 0 293 349" style="enable-background:new 0 0 293 349;" xml:space="preserve">
<style type="text/css">
	.st0{fill:#5F2C82;}
	.st1{opacity:0.22;fill:#FFFFFF;}
	.st2{opacity:0.66;fill:#3D1960;}
	.st3{fill:#FFFFFF;}
	.st4{fill:#D2F0FF;}
</style>
<g>
	<path class="st0" d="M150.37,116.2L150.37,116.2c-5.42,2.03-11.46-0.73-13.49-6.15L101.21,14.6c-2.03-5.42,0.73-11.46,6.15-13.49
		l0,0c5.42-2.03,11.46,0.73,13.49,6.15l35.67,95.45C158.54,108.14,155.79,114.18,150.37,116.2z"/>
	<path class="st1" d="M115.78,7.43c0.87,2.62,3.49,17.7,0.86,18.56c-2.62,0.87-9.49-12.81-10.36-15.43
		c-0.87-2.62,0.56-5.45,3.18-6.31S114.92,4.81,115.78,7.43z"/>
	<path class="st2" d="M156.11,81.71c0,0-3.87,1.29-7.74,2.58s-14.93,9.03-16.66,11.93c-1.72,2.9,15.05,5.8,15.05,5.8L156.11,81.71z"
		/>
	<path class="st0" d="M150.12,127.6L150.12,127.6c-5.65-1.28-9.18-6.89-7.91-12.54l22.51-99.38c1.28-5.65,6.89-9.18,12.54-7.91l0,0
		c5.65,1.28,9.18,6.89,7.91,12.54l-22.51,99.38C161.37,125.34,155.76,128.88,150.12,127.6z"/>
	<path class="st1" d="M180.3,17.67c-0.61,2.69-6.11,16.97-8.8,16.37c-2.69-0.61-1.56-15.86-0.95-18.56
		c0.61-2.69,3.28-4.39,5.97-3.78C179.21,12.3,180.9,14.97,180.3,17.67z"/>
	<path class="st3" d="M279.62,238.44v86.42c0,7.66-6.21,13.87-13.87,13.87c-7.66,0-13.87-6.21-13.87-13.87v-86.42"/>
	<path class="st4" d="M250.96,293.58l-5.52,40.25l7.07,4.89h12.63l8.68-0.95C273.81,337.78,246.62,331.47,250.96,293.58z"/>
	<path class="st4" d="M259.3,274.23l19.35-10.43v55.56C278.65,319.36,274.78,286.16,259.3,274.23z"/>
	<path class="st0" d="M280.17,238.44c1.04,4.51,1.86,9.02,2.6,13.52c0.39,2.25,0.71,4.51,1.05,6.76c0.33,2.25,0.62,4.51,0.93,6.76
		c1.17,9.02,2.04,18.03,2.75,27.05l0.49,6.76c0.15,2.25,0.26,4.51,0.4,6.76c0.29,4.51,0.43,9.02,0.62,13.52
		c0.05,1.13,0.09,2.25,0.11,3.38l0.04,1.69l0,0.22l-0.01,0.35l-0.02,0.71c-0.02,0.47-0.03,0.95-0.07,1.42
		c-0.36,3.8-1.67,7.54-3.76,10.75c-2.15,3.18-5.05,5.83-8.45,7.66c-3.4,1.81-7.27,2.8-11.11,2.82c-3.83-0.03-7.71-1.01-11.1-2.82
		c-0.43-0.22-0.83-0.48-1.24-0.73c-0.41-0.26-0.83-0.5-1.21-0.79c-0.77-0.57-1.55-1.14-2.24-1.81c-0.35-0.33-0.71-0.64-1.04-0.99
		c-0.33-0.35-0.65-0.71-0.97-1.06c-0.16-0.18-0.32-0.36-0.47-0.54c-0.15-0.19-0.29-0.38-0.43-0.57c-0.28-0.39-0.56-0.78-0.84-1.17
		c-2.1-3.21-3.4-6.95-3.76-10.74c-0.04-0.47-0.05-0.95-0.07-1.42l-0.02-0.71l-0.01-0.35l0-0.22l0.04-1.69
		c0.02-1.13,0.08-2.25,0.12-3.38c0.19-4.51,0.34-9.02,0.63-13.52c0.13-2.25,0.24-4.51,0.4-6.76l0.49-6.76
		c0.71-9.02,1.58-18.03,2.75-27.05c0.31-2.25,0.59-4.51,0.93-6.76c0.34-2.25,0.66-4.51,1.05-6.76c0.74-4.51,1.55-9.02,2.58-13.52
		h1.1l0.27,27.05l0.15,27.05c0.07,9.02,0.05,18.03,0.08,27.05l0.01,3.38l0,1.69c-0.01,0.29,0.02,0.53,0.03,0.8
		c0.02,0.26,0.02,0.52,0.05,0.78c0.24,2.07,0.98,4.07,2.14,5.8c1.19,1.7,2.77,3.14,4.61,4.12c1.84,0.96,3.91,1.47,5.99,1.48
		c2.08-0.01,4.14-0.52,5.99-1.48c1.84-0.97,3.42-2.41,4.61-4.12c1.16-1.73,1.89-3.73,2.14-5.8c0.03-0.26,0.03-0.52,0.05-0.78
		c0.01-0.27,0.04-0.5,0.03-0.8l0-1.69l0.01-3.38c0.03-9.02,0.01-18.03,0.08-27.05l0.15-27.05l0.27-27.05H280.17z"/>
	<path class="st3" d="M43.44,308.74h192.78c17.38,0,31.47-14.09,31.47-31.47V168.33c0-17.38-14.09-31.47-31.47-31.47H43.44
		c-17.38,0-31.47,14.09-31.47,31.47v108.94C11.96,294.65,26.05,308.74,43.44,308.74z"/>
	<path class="st4" d="M29.38,248.11c0,0-1.93,1.61-5.8,5.8c-3.87,4.19-13.54,6.77-13.54,6.77l8.71,26.77l13.87,4.19L29.38,248.11z"
		/>
	<path class="st4" d="M57.29,267.46c0,0,1.08,1.61,3.23,5.8c2.16,4.19,33.34,8.71,33.34,8.71l-22.25,27.09l-16.12,1.93L57.29,267.46
		z"/>
	<polygon class="st3" points="70.68,272.81 56.62,289.98 54.14,297.15 74.95,272.35 	"/>
	<polygon class="st3" points="74.34,277.47 60.29,294.63 57.81,301.81 78.62,277 	"/>
	<polygon class="st3" points="89.66,284.35 75.6,301.51 73.13,308.69 93.94,283.88 	"/>
	<path class="st4" d="M83.74,268.43c0,0,1.08,1.61,3.23,5.8c2.16,4.19,33.34,8.71,33.34,8.71l-22.25,27.09H70.65L83.74,268.43z"/>
	<polygon class="st3" points="78.37,283.06 64.32,300.22 61.84,307.4 82.65,282.59 	"/>
	<polygon class="st3" points="87.12,279.91 73.07,297.07 70.59,304.24 91.4,279.44 	"/>
	<polygon class="st3" points="93.37,282.63 79.31,299.79 76.84,306.97 97.65,282.16 	"/>
	<polygon class="st3" points="101.27,283.7 87.21,300.87 84.74,308.04 105.55,283.24 	"/>
	<polygon class="st3" points="108.69,284.35 94.63,301.51 92.15,308.69 112.96,283.88 	"/>
	<path class="st0" d="M228.33,316.48H51c-27.57,0-50-22.43-50-50v-89.61c0-52.9,49.66-78.7,77.39-80.64l130.58,17.74
		c27.57,0,50,35.33,50,62.9l33.86,63.19C292.84,299.71,255.9,316.48,228.33,316.48z M51,134.92c-17.79,0-32.27,24.15-32.27,41.94
		v89.61c0,17.79,14.47,32.27,32.27,32.27h177.32c17.79,0,38.72-14.47,38.72-32.27l-25.8-89.61c0-17.79-14.47-32.27-32.27-32.27
		L51,134.92z"/>
	<path class="st3" d="M54.53,238.44v86.42c0,7.66-6.21,13.87-13.87,13.87s-13.87-6.21-13.87-13.87v-86.42"/>
	<path class="st4" d="M27.49,293.58l-5.52,40.25l7.07,4.89h12.63l8.68-0.95C50.34,337.78,23.14,331.47,27.49,293.58z"/>
	<path class="st0" d="M55.08,238.44c1.04,4.51,1.86,9.02,2.6,13.52c0.39,2.25,0.71,4.51,1.05,6.76c0.33,2.25,0.62,4.51,0.93,6.76
		c1.17,9.02,2.04,18.03,2.75,27.05l0.49,6.76c0.15,2.25,0.26,4.51,0.4,6.76c0.29,4.51,0.43,9.02,0.62,13.52
		c0.05,1.13,0.09,2.25,0.11,3.38l0.04,1.69l0,0.22l-0.01,0.35l-0.02,0.71c-0.02,0.47-0.03,0.95-0.07,1.42
		c-0.36,3.8-1.67,7.54-3.76,10.75c-2.15,3.18-5.05,5.83-8.45,7.66c-3.4,1.81-7.27,2.8-11.11,2.82c-3.83-0.03-7.71-1.01-11.1-2.82
		c-0.43-0.22-0.83-0.48-1.24-0.73c-0.41-0.26-0.83-0.5-1.21-0.79c-0.77-0.57-1.55-1.14-2.24-1.81c-0.35-0.33-0.71-0.64-1.04-0.99
		c-0.33-0.35-0.65-0.71-0.97-1.06c-0.16-0.18-0.32-0.36-0.47-0.54c-0.15-0.19-0.29-0.38-0.43-0.57c-0.28-0.39-0.56-0.78-0.84-1.17
		c-2.1-3.21-3.4-6.95-3.76-10.74c-0.04-0.47-0.05-0.95-0.07-1.42l-0.02-0.71l-0.01-0.35l0-0.22l0.04-1.69
		c0.02-1.13,0.08-2.25,0.12-3.38c0.19-4.51,0.34-9.02,0.63-13.52c0.13-2.25,0.24-4.51,0.4-6.76l0.49-6.76
		c0.71-9.02,1.58-18.03,2.75-27.05c0.31-2.25,0.59-4.51,0.93-6.76c0.34-2.25,0.66-4.51,1.05-6.76c0.74-4.51,1.55-9.02,2.58-13.52
		l0.03-0.12c0.07-0.29,0.36-0.47,0.65-0.41c0.25,0.06,0.42,0.28,0.42,0.52l0.27,27.05l0.15,27.05c0.07,9.02,0.05,18.03,0.08,27.05
		l0.01,3.38l0,1.69c-0.01,0.29,0.02,0.53,0.03,0.8c0.02,0.26,0.02,0.52,0.05,0.78c0.24,2.07,0.98,4.07,2.14,5.8
		c1.19,1.7,2.77,3.14,4.61,4.12c1.84,0.96,3.91,1.47,5.99,1.48c2.08-0.01,4.14-0.52,5.99-1.48c1.84-0.97,3.42-2.41,4.61-4.12
		c1.16-1.73,1.89-3.73,2.14-5.8c0.03-0.26,0.03-0.52,0.05-0.78c0.01-0.27,0.04-0.5,0.03-0.8l0-1.69l0.01-3.38
		c0.03-9.02,0.01-18.03,0.08-27.05l0.15-27.05l0.27-27.05c0-0.3,0.25-0.54,0.55-0.54c0.26,0,0.47,0.18,0.52,0.42L55.08,238.44z"/>
	<path class="st3" d="M76.8,276.65h174.42c18.18,0,32.91-14.74,32.91-32.91V137.68c0-18.18-14.74-32.91-32.91-32.91H76.8
		c-18.18,0-32.91,14.74-32.91,32.91v106.05C43.89,261.91,58.62,276.65,76.8,276.65z"/>
	<path class="st4" d="M35.83,235.49l17.74,28.31v55.56C53.56,319.36,52.53,276.39,35.83,235.49z"/>
	<path class="st4" d="M46.47,172.33v87.07l23.22,13.87l66.43-3.87C136.12,269.39,56.79,274.88,46.47,172.33z"/>
	<path class="st0" d="M243,285.52H85.02c-27.57,0-50-22.43-50-50v-89.61c0-27.57,22.43-50,50-50H243c27.57,0,50,22.43,50,50v89.61
		C293,263.09,270.57,285.52,243,285.52z M85.02,113.64c-17.79,0-32.27,14.47-32.27,32.27v89.61c0,17.79,14.47,32.27,32.27,32.27H243
		c17.79,0,32.27-14.47,32.27-32.27v-89.61c0-17.79-14.47-32.27-32.27-32.27H85.02z"/>
	<line class="st3" x1="121.64" y1="151.52" x2="209.45" y2="151.52"/>
</g>
<path class="st0" d="M206.92,228.12c0,4.21-3.36,7.51-7.51,7.51l-0.41-0.04c-22.78-2.12-45.7-2.17-68.49-0.16l-2.22,0.2
	c-4.15,0-7.51-3.31-7.51-7.51c0-4.15,3.36-7.51,7.51-7.51l1.49-0.13c22.77-2.06,45.68-2.05,68.44,0.03l1.18,0.11
	C203.55,220.61,206.92,223.97,206.92,228.12z"/>
<path class="st0" d="M82.59,158.74c3.53-2.07,13.96,9.11,30.34,9.72c16.96,0.63,26.82-11.79,30.34-9.72
	c4.39,1.51-1.6,30.18-30.34,30.29C84.19,188.92,78.2,160.24,82.59,158.74z"/>
<path class="st0" d="M245.11,158.74c-3.53-2.07-13.96,9.11-30.34,9.72c-16.96,0.63-26.82-11.79-30.34-9.72
	c-4.39,1.51,1.6,30.18,30.34,30.29C243.5,188.92,249.5,160.24,245.11,158.74z"/>
<path class="st0" d="M196.96,139.65c-0.72-1.76,0.13-3.77,1.89-4.48c1.75-0.72,3.76,0.12,4.48,1.87
	c0.26,0.62,6.17,13.94,25.28,10.87c1.89-0.31,3.64,0.98,3.94,2.85c0.3,1.88-0.98,3.64-2.85,3.94
	C213.14,157.36,200.87,149.24,196.96,139.65z"/>
<path class="st0" d="M130.75,139.65c0.72-1.76-0.13-3.77-1.89-4.48c-1.75-0.72-3.76,0.12-4.48,1.87
	c-0.26,0.62-6.17,13.94-25.28,10.87c-1.89-0.31-3.64,0.98-3.94,2.85c-0.3,1.88,0.98,3.64,2.85,3.94
	C114.57,157.36,126.84,149.24,130.75,139.65z"/>
</svg>
