<svg id="etisalat-1" xmlns="http://www.w3.org/2000/svg" width="39.904" height="57.322" viewBox="0 0 39.904 57.322">
  <path id="Path_380" data-name="Path 380" d="M269.692,624.179a.8.8,0,0,1-.007-.1.131.131,0,0,1,.014-.071,1.582,1.582,0,0,0-.15.085l-.427.235-.42.192c-.057.029-.121.057-.135.37v3.765h-3.21v-3.31a1.417,1.417,0,0,0-.37-1.1,1.494,1.494,0,0,0-1.16-.306,8.324,8.324,0,0,0-5.082,1.751l-.42.477-.142.185-.085-.221a2.512,2.512,0,0,0-.434-.69l-.142-.149-.114-.1c.014.157.05.52.05,1.018v2.392h-1.808v-8.228c0-.135-.014-.178.007-.178,0,0-.149.085-.157.085l-.427.235-.42.192c-.057.028-.135.057-.135.441v7.4a1.121,1.121,0,0,0,.221.89,1.022,1.022,0,0,0,.932.42h1.73v.128a7.954,7.954,0,0,1-.335,1.68.467.467,0,0,0-.021.071,3.134,3.134,0,0,0,.434-.335,4.288,4.288,0,0,0,.84-1.459l.028-.085h10.065a1.467,1.467,0,0,0,.819-.2c.342-.249.456-.448.456-1.125v-3.046C269.692,625.367,269.692,624.2,269.692,624.179Zm-5.495,4.427h-5.644l.007-.086c0-.028.356-3.2,4.9-3.359a.669.669,0,0,1,.534.192.887.887,0,0,1,.206.619Zm-18.158-.029V625.93c0-.384.078-.42.135-.441l.42-.192s.527-.292.555-.306a.545.545,0,0,1,.014.157v3.694a1.1,1.1,0,0,1-.349.762,1.112,1.112,0,0,1-.861.278H239.74a1.962,1.962,0,0,1-1.616-1,2.821,2.821,0,0,1-.363-1.438,4.448,4.448,0,0,1,.178-1.21,1.28,1.28,0,0,1,.249-.52c.007.036.007.064.014.121a7.041,7.041,0,0,0,.448,1.772,2.068,2.068,0,0,0,1.957,1.046h5.431Zm5.495-7.161v-.043c0-.384.071-.413.135-.441l.42-.192s.52-.285.555-.306a.527.527,0,0,1,.021.156v4.271c0,3.837-1.779,4.94-1.922,5.018H249.05a6.16,6.16,0,0,0,1.466-1.324l.028-.036v-.071l-2.014-4.484a3.627,3.627,0,0,1-.278-1.331,1.841,1.841,0,0,1,.584-1.409.8.8,0,0,1,.007.1,5.538,5.538,0,0,0,.441,1.772c.014.021,1.238,2.377,1.723,3.559l.149.448.078.242.078-.242.036-.121a3.851,3.851,0,0,0,.192-1.1v-.128C251.534,625.5,251.534,621.417,251.534,621.417ZM241.7,637.29l-3.694.377a1.772,1.772,0,0,0,1.943,1.6h2.363a.531.531,0,0,1,.562.548v.47h-2.954a2.942,2.942,0,0,1-3.025-3.267,3.008,3.008,0,0,1,3.167-3.139,2.69,2.69,0,0,1,2.712,2.043C242.957,636.678,242.552,637.19,241.7,637.29Zm-.683-.84a1.075,1.075,0,0,0,.626-.2.489.489,0,0,0,.028-.5,1.7,1.7,0,0,0-1.616-.918,1.9,1.9,0,0,0-2.043,1.95S240.872,636.464,241.021,636.45Zm13.567-2.555c.349,0,.6.164.6.512s-.249.513-.6.513h-2.57c-.541.043-.605.584-.562.918a.4.4,0,0,0,.142.263,1.687,1.687,0,0,0,.762.242l1.957.342a1.471,1.471,0,0,1,1.416,1.637c0,1.445-.89,1.979-2.285,1.979H250.2v-.513c0-.349.242-.512.605-.512h2.57c1,0,1.26-.306,1.26-.861,0-.5-.142-.683-.811-.8l-1.979-.327c-1-.164-1.438-.69-1.495-1.367-.078-.989.327-2.036,1.68-2.036h2.562Zm7.082,2.256c0-1.117-.3-2.256-1.957-2.256h-2.32c-.363,0-.605.164-.605.512s.242.513.605.513h2.157c.769,0,1.018.178,1.018.712v.164c-.043.327-.413.406-.6.448-1.552.363-3.637-.036-3.637,2.2,0,1.189,1.018,1.893,2.406,1.893.014,0,1.4.071,1.908-.633v.057a.509.509,0,0,0,.562.534h.456Zm-1.1,1.851c0,1.089-.612,1.48-1.658,1.48-.94,0-1.481-.342-1.481-1.089a1.116,1.116,0,0,1,1.046-1.025c.569-.1,1.431-.142,2.093-.292Zm9.488-1.851c0-1.117-.3-2.256-1.957-2.256h-2.32c-.363,0-.605.164-.605.512s.242.513.605.513h2.157c.769,0,1.018.178,1.018.712v.164c-.043.327-.413.406-.605.448-1.552.363-3.637-.036-3.637,2.2,0,1.189,1.018,1.893,2.406,1.893.014,0,1.4.071,1.908-.633a.325.325,0,0,0,.007.057.509.509,0,0,0,.562.534h.463Zm-1.1,1.851c0,1.089-.612,1.48-1.658,1.48-.94,0-1.48-.342-1.48-1.089a1.116,1.116,0,0,1,1.046-1.025c.569-.1,1.431-.142,2.093-.292Zm-5.1-5.851h-.619a.437.437,0,0,0-.484.484V640.3h1.11v-8.15Zm-17.375,7.2c-.84,0-1.153-.036-1.153-.648v-3.772h.975c.349,0,.605-.164.605-.513s-.249-.513-.605-.513h-.975v-1.7h-.47a2.059,2.059,0,0,0-.228.014.438.438,0,0,0-.406.484v1.21h-.3c-.349,0-.605.164-.605.512s.249.513.605.513h.3v4.007c0,1.352.94,1.374,2.256,1.374h.655v-.441C247.128,639.546,246.879,639.347,246.481,639.347Zm27.326,0c-.84,0-1.153-.036-1.153-.648v-3.772h.975c.349,0,.605-.164.605-.513s-.249-.513-.605-.513h-.975v-1.7h-.47a2.059,2.059,0,0,0-.228.014.431.431,0,0,0-.4.484v1.21h-.3c-.349,0-.605.164-.605.512s.249.513.605.513h.3v4.007c0,1.352.94,1.374,2.256,1.374h.655v-.441C274.454,639.546,274.2,639.347,273.806,639.347Zm-24.621.961V633.9h-.619a.433.433,0,0,0-.484.491v5.922h1.1Zm-.669-6.9c.27,0,.406.007.555-.128a.71.71,0,0,0,.121-.52V632.2h-.619a.43.43,0,0,0-.484.491v.726S248.4,633.411,248.516,633.411Z" transform="translate(-235.692 -583.016)" fill="#636569"/>
  <path id="Path_381" data-name="Path 381" d="M233.532,180.053a3.534,3.534,0,0,1-1.63-.327c-2.057-1.068-3.694-6.207-3.666-11.488.014-3.452,2.2-5.353,5.474-5.353a13.42,13.42,0,0,1,6.015,1.68c6.335,3.267,7.965,8.413,3.666,11.488-3.409,2.456-7.346,4-9.858,4m-.8-22.464a8.063,8.063,0,0,0-2.52.363c-2.847.875-3.979,3.53-3.758,7.232a46.265,46.265,0,0,0,2.214,10.314c.932,2.826,1.573,4.612,2.733,5.21a2.673,2.673,0,0,0,1.239.263,18.1,18.1,0,0,0,4.6-1.046,46.215,46.215,0,0,0,9.695-4.164c3.139-1.957,4.662-4.42,3.723-7.246-.854-2.783-4.157-5.943-8.677-8.278a21.1,21.1,0,0,0-9.246-2.648M221.247,154.4c-1.63,2.121-1.666,5.609-.584,9.929,1.516,6.086,4.143,12.236,5.367,16.343,1.409,4.2,1.416,6.356,1.965,6.634a.4.4,0,0,0,.192.043c.719,0,2.527-1.125,6.356-2.278,4.057-1.381,10.591-2.8,16.435-5.089,4.114-1.609,6.926-3.644,7.737-6.171-1.31,1.765-3.694,3.253-6.855,4.484-5.844,2.285-12.378,3.708-16.435,5.089-3.829,1.16-5.63,2.285-6.349,2.285a.433.433,0,0,1-.2-.043c-.548-.285-.555-2.434-1.965-6.641-1.224-4.107-3.844-10.257-5.367-16.343-.84-3.317-1.011-6.15-.3-8.242" transform="translate(-219.925 -150.371)" fill="#b4bd00"/>
  <path id="Path_382" data-name="Path 382" d="M245.461,97.8a10.083,10.083,0,0,0-3.246.463,5.341,5.341,0,0,0-3.716,3.566,5.433,5.433,0,0,1,2.833-1.879,10.159,10.159,0,0,1,3.253-.463c4.249,0,10.179,1.779,16.307,4.94,7.915,4.086,13.759,9.253,14.976,13.36a5.436,5.436,0,0,1,.093,3.452,5.335,5.335,0,0,0,.79-5.139c-1.217-4.107-7.061-9.267-14.976-13.353-6.129-3.175-12.065-4.947-16.314-4.947" transform="translate(-237.178 -97.8)" fill="#bdca8b"/>
  <path id="Path_383" data-name="Path 383" d="M244.141,150.406a2.606,2.606,0,0,1-1.239-.263c-1.16-.6-1.8-2.384-2.733-5.21a46.172,46.172,0,0,1-2.214-10.314c-.221-3.694.9-6.356,3.758-7.232a8.062,8.062,0,0,1,2.52-.363,21.33,21.33,0,0,1,9.253,2.641c4.52,2.335,7.823,5.495,8.677,8.278.932,2.826-.584,5.289-3.723,7.246a46.058,46.058,0,0,1-9.695,4.164,17.667,17.667,0,0,1-4.605,1.053m-5.31-28.906a10.129,10.129,0,0,0-3.253.463,5.433,5.433,0,0,0-2.833,1.879c-.7,2.093-.534,4.926.292,8.242,1.523,6.086,4.143,12.243,5.367,16.343,1.409,4.207,1.416,6.356,1.965,6.641a.433.433,0,0,0,.2.043c.719,0,2.527-1.125,6.349-2.285,4.057-1.381,10.591-2.8,16.435-5.089,3.16-1.231,5.545-2.719,6.855-4.484a5.387,5.387,0,0,0-.093-3.452c-1.217-4.107-7.061-9.275-14.976-13.36-6.129-3.167-12.058-4.94-16.307-4.94" transform="translate(-231.423 -119.813)" fill="#789904"/>
  <path id="Path_384" data-name="Path 384" d="M328.343,630.218v-6.064c0-.384.078-.42.135-.441l.42-.192.584-.32c-.007,0-.014.007-.014.036v9.445h-1.125Zm-29.916-2.434c.27,0,.413.007.562-.135a.729.729,0,0,0,.121-.527v-.562h-.626a.43.43,0,0,0-.484.491v.733Zm1.459,0c.271,0,.413.007.562-.135a.73.73,0,0,0,.121-.527v-.562h-.626a.429.429,0,0,0-.484.491v.733Zm24.421-1.993c.271,0,.413.007.562-.128.121-.107.121-.306.121-.527v-.569h-.626a.43.43,0,0,0-.484.491v.733Zm1.459,0c.271,0,.413.007.562-.128.121-.107.121-.306.121-.527v-.569h-.626a.43.43,0,0,0-.484.491v.733Z" transform="translate(-292.443 -585.803)" fill="#636569"/>
</svg>
