<svg id="fast-food" xmlns="http://www.w3.org/2000/svg" width="34.5" height="34.5" viewBox="0 0 34.5 34.5">
  <path id="Path_280" data-name="Path 280" d="M28.2,165.75a3.033,3.033,0,0,1-1.529-2.632A8.432,8.432,0,0,1,35.1,154.7h3.471l.163-2.7H19.063l1.413,23.308a1.011,1.011,0,0,0,1.009.95h6.2a5.027,5.027,0,0,1-1.013-3.032,3.037,3.037,0,0,1,2-2.852,4.029,4.029,0,0,1,0-4.406C28.347,165.894,28.164,165.821,28.2,165.75Zm0,0" transform="translate(-17.778 -141.758)" fill="#6b18ff"/>
  <path id="Path_281" data-name="Path 281" d="M11.117,8.221H21.226a1.011,1.011,0,1,0,0-2.021H12.984l2.725-4.178h3.5A1.011,1.011,0,1,0,19.2,0H15.161a1.01,1.01,0,0,0-.846.459L10.571,6.2H1.011a1.011,1.011,0,1,0,0,2.021H11.117Zm0,0" fill="#6b18ff"/>
  <path id="Path_282" data-name="Path 282" d="M162,228.4a1.011,1.011,0,0,0,1.011,1.011h21.562a1.011,1.011,0,0,0,1.011-1.011,6.409,6.409,0,0,0-6.4-6.4H168.4A6.409,6.409,0,0,0,162,228.4Zm0,0" transform="translate(-151.084 -207.041)" fill="#6b18ff"/>
  <path id="Path_283" data-name="Path 283" d="M184.021,362a2.021,2.021,0,1,0,0,4.043h16.846a2.021,2.021,0,1,0,0-4.043Zm0,0" transform="translate(-169.736 -337.607)" fill="#6b18ff"/>
  <path id="Path_284" data-name="Path 284" d="M184.573,452H163.011A1.011,1.011,0,0,0,162,453.011a3.036,3.036,0,0,0,3.032,3.032h17.52a3.036,3.036,0,0,0,3.032-3.032A1.011,1.011,0,0,0,184.573,452Zm0,0" transform="translate(-151.084 -421.543)" fill="#6b18ff"/>
</svg>
