<svg xmlns="http://www.w3.org/2000/svg" width="41.983" height="27.808" viewBox="0 0 41.983 27.808">
  <g id="games" transform="translate(0 -9.052)">
    <path id="Path_285" data-name="Path 285" d="M38.229,13.97C32.683,4.86,24.33,11.2,24.33,11.2a4.33,4.33,0,0,1-2.219.748l-2.237,0a4.3,4.3,0,0,1-2.219-.745S9.3,4.862,3.755,13.972.445,33,.445,33c.391,2.428,1.682,4.049,4.116,3.845s7.7-6.54,7.7-6.54a3,3,0,0,1,2.025-.949l13.414,0a3,3,0,0,1,2.024.949s5.27,6.337,7.7,6.54S41.147,35.422,41.536,33C41.535,33,43.774,23.079,38.229,13.97ZM15.95,21.385H13.074v2.772a2.681,2.681,0,0,1-1.552.453,1.874,1.874,0,0,1-1.367-.507V21.386H7.439a2.184,2.184,0,0,1-.43-1.263,2.9,2.9,0,0,1,.375-1.655h2.877V15.592A3.127,3.127,0,0,1,11.7,15.3a3.8,3.8,0,0,1,1.476.347l-.012,2.821h2.717a2.7,2.7,0,0,1,.514,1.345A3.4,3.4,0,0,1,15.95,21.385Zm13.193,3.16a2.277,2.277,0,1,1,2.277-2.277A2.273,2.273,0,0,1,29.143,24.545Zm0-6.264a2.276,2.276,0,1,1,2.277-2.276A2.273,2.273,0,0,1,29.143,18.281Zm5.67,3.362a2.277,2.277,0,1,1,2.277-2.277A2.273,2.273,0,0,1,34.813,21.644Z" transform="translate(0)" fill="#6b18ff"/>
  </g>
</svg>
