<svg id="orange-3" xmlns="http://www.w3.org/2000/svg" width="68.522" height="37.108" viewBox="0 0 68.522 37.108">
  <path id="Path_385" data-name="Path 385" d="M68.522,37.108H0V0H68.522Z" fill="#f60"/>
  <path id="Path_386" data-name="Path 386" d="M23.691,266.6c-2.481,0-4.719-1.58-4.719-5.032s2.238-5.032,4.719-5.032,4.716,1.58,4.716,5.032-2.235,5.032-4.716,5.032m0-7.943c-1.876,0-2.218,1.69-2.218,2.91s.343,2.914,2.218,2.914,2.219-1.693,2.219-2.914-.343-2.91-2.219-2.91m6.437-1.87h2.388v1.121a3.7,3.7,0,0,1,2.628-1.317,2.692,2.692,0,0,1,.326.013v2.358h-.123c-1.091,0-2.285.17-2.671,1.018v6.343H30.129Zm12.01,8.705a5.618,5.618,0,0,1-3.153.948,2.647,2.647,0,0,1-2.834-2.774c0-2.135,1.962-3.263,6.007-3.718v-.532c0-.692-.525-1.1-1.5-1.1a2.861,2.861,0,0,0-2.328,1.1l-1.693-.965a4.656,4.656,0,0,1,4.061-1.866c2.488,0,3.885,1.078,3.885,2.831,0,0,0,6.895,0,6.911H42.361l-.223-.835Zm-3.516-2.009a1.15,1.15,0,0,0,1.131,1.24,3.49,3.49,0,0,0,2.325-1v-2.259c-2.345.29-3.456.895-3.456,2.022m7.947-6.442,2.079-.286.229,1.131a5.332,5.332,0,0,1,3.273-1.314c1.962,0,2.977,1.041,2.977,3.1v6.639H52.617v-6.2c0-1.168-.3-1.693-1.211-1.693a3.693,3.693,0,0,0-2.351,1.058v6.838H46.57Zm14.7,7.232c1.9-.013,2.065-1.952,2.065-3.213,0-1.5-.728-2.7-2.082-2.7-.9,0-1.909.658-1.909,2.807,0,1.174.083,3.126,1.926,3.11m4.477-7.52v9.03c0,1.59-.126,4.221-4.666,4.244-1.876.013-3.615-.738-3.961-2.375l2.475-.4c.1.469.392.935,1.8.935,1.3,0,1.926-.622,1.926-2.112v-1.111l-.033-.033a2.5,2.5,0,0,1-2.461,1.39c-2.225,0-3.974-1.543-3.974-4.766,0-3.19,1.806-4.976,3.831-4.979,1.906,0,2.608.865,2.774,1.32l-.033,0,.209-1.141h2.118Zm6,9.744c-2.81,0-4.487-1.809-4.487-4.946,0-3.173,1.7-4.979,4.447-4.979s4.387,1.753,4.387,4.853c0,.166-.02.329-.02.492H69.725c.017,1.809.768,2.721,2.245,2.721a2.441,2.441,0,0,0,2.165-1.22l1.836,1.018a4.583,4.583,0,0,1-4.224,2.062m1.883-6.206a1.819,1.819,0,0,0-1.923-2.026c-1.134,0-1.843.735-1.942,2.026Zm6.761-7.122-.925,2.391-.941-2.391h-.8v3.153h.522v-2.631h.013l1.034,2.631h.333l1.028-2.631h.016v2.631h.519v-3.153Zm-5.8,0v.419h.985v2.734h.522v-2.734h.988v-.419H74.587Z" transform="translate(-15.258 -235.019)" fill="#fff"/>
</svg>
