<svg id="shopping-cart" xmlns="http://www.w3.org/2000/svg" width="35.84" height="31.5" viewBox="0 0 35.84 31.5">
  <path id="Path_286" data-name="Path 286" d="M11.62,21H30.59a1.047,1.047,0,0,0,1.009-.762l4.2-14.7A1.049,1.049,0,0,0,34.79,4.2H9.2L8.445.822A1.05,1.05,0,0,0,7.42,0H1.05a1.05,1.05,0,0,0,0,2.1H6.577l3.792,17.062A3.148,3.148,0,0,0,11.62,25.2H30.59a1.05,1.05,0,0,0,0-2.1H11.62a1.05,1.05,0,0,1,0-2.1Zm0,0" fill="#6b18ff"/>
  <path id="Path_287" data-name="Path 287" d="M151,363.154a3.15,3.15,0,1,0,3.15-3.15A3.153,3.153,0,0,0,151,363.154Zm0,0" transform="translate(-140.43 -334.804)" fill="#6b18ff"/>
  <path id="Path_288" data-name="Path 288" d="M362,363.154a3.15,3.15,0,1,0,3.15-3.15A3.153,3.153,0,0,0,362,363.154Zm0,0" transform="translate(-336.664 -334.804)" fill="#6b18ff"/>
</svg>
