<svg xmlns="http://www.w3.org/2000/svg" width="48.823" height="48.967" viewBox="0 0 48.823 48.967">
  <g id="vodafone-icon" opacity="0.997">
    <path id="Path_387" data-name="Path 387" d="M15.692,2.812a24.4,24.4,0,0,1,19.267.564,16.2,16.2,0,0,0-5.12.221A24.79,24.79,0,0,0,17.51,9.816a21.237,21.237,0,0,0-6.191,12.006,16.708,16.708,0,0,0,1.415,9.539,14.215,14.215,0,0,0,7.277,6.906A13.056,13.056,0,0,0,38.019,27.2a12.418,12.418,0,0,0-2.7-9.1,15.3,15.3,0,0,0-8.092-4.5,9.918,9.918,0,0,1,3.463-7.849,10.911,10.911,0,0,1,4.35-2.277l.12-.042A24.726,24.726,0,0,1,46,13.6a24.194,24.194,0,0,1,3.092,12.371A24.421,24.421,0,0,1,30.2,49.445,24.412,24.412,0,0,1,3.426,37.654a24.672,24.672,0,0,1,2.1-27.261,24.522,24.522,0,0,1,10.164-7.58Zm0,0" transform="translate(-0.279 -1.102)" fill="#e60000"/>
    <path id="Path_388" data-name="Path 388" d="M103.063,18.1a16.2,16.2,0,0,1,5.12-.221l.244.041-.164.062a10.913,10.913,0,0,0-4.35,2.277,9.918,9.918,0,0,0-3.463,7.849,15.3,15.3,0,0,1,8.092,4.5,12.418,12.418,0,0,1,2.7,9.1A13.056,13.056,0,0,1,93.236,52.769a14.215,14.215,0,0,1-7.277-6.906,16.707,16.707,0,0,1-1.415-9.539,21.235,21.235,0,0,1,6.191-12.006A24.789,24.789,0,0,1,103.063,18.1Zm0,0" transform="translate(-73.503 -15.602)" fill="#fff"/>
  </g>
</svg>
